<svg width="288" height="288" viewBox="0 0 288 288" fill="none" xmlns="http://www.w3.org/2000/svg">
<path fill-rule="evenodd" clip-rule="evenodd" d="M288 288H151.664H0V0H288V288Z" fill="#0B9B92"/>
<path fill-rule="evenodd" clip-rule="evenodd" d="M30.9564 204.015C30.5151 204.058 30.0677 204.079 29.6161 204.079C22.1313 204.239 16.0797 198.107 16.0797 190.701C16.0797 186.363 18.0684 182.496 21.1758 179.987V109.957C17.7253 107.231 16 103.669 16 99.27C16 97.5364 16.3196 95.8636 16.9587 94.2517C17.5978 92.6399 18.5115 91.2017 19.6998 89.9391C20.888 88.6747 22.2672 87.6753 23.8374 86.9392C25.4072 86.2031 27.0578 85.7823 28.7888 85.6784L84.9802 29.7445C85.0822 28.0198 85.4977 26.3775 86.2282 24.8122C86.9588 23.2487 87.9508 21.8732 89.2078 20.6894C90.4636 19.505 91.8938 18.594 93.4981 17.9564C95.1025 17.3188 96.7678 17 98.494 17C102.881 17 106.43 18.7265 109.139 22.1777H176.313C179.022 18.7265 182.571 17 186.96 17C188.677 17 190.337 17.317 191.936 17.9492C193.535 18.5814 194.96 19.4841 196.215 20.6608C197.469 21.8356 198.464 23.2021 199.199 24.7567C199.933 26.3112 200.355 27.9464 200.466 29.6622L256.597 85.7697C257.19 85.6909 257.786 85.6515 258.384 85.6515C260.189 85.6515 261.926 85.9972 263.595 86.6885C265.264 87.3798 266.736 88.363 268.012 89.64C269.289 90.9187 270.274 92.3909 270.963 94.0583C271.654 95.7275 272 97.4647 272 99.27C272 101.89 271.303 104.308 269.909 106.523C268.514 108.741 266.637 110.415 264.277 111.549V178.363C268.804 180.578 271.921 185.271 271.921 190.701C271.921 198.107 265.869 204.079 258.384 204.079C257.261 204.105 256.171 203.986 255.125 203.745L200.488 257.633C200.432 259.39 200.049 261.072 199.338 262.68C198.626 264.288 197.639 265.703 196.377 266.926C195.114 268.15 193.669 269.092 192.04 269.751C190.41 270.412 188.716 270.741 186.96 270.741C184.847 270.741 182.843 270.272 180.949 269.334C179.056 268.395 177.469 267.086 176.191 265.404H109.263C107.983 267.086 106.396 268.395 104.503 269.334C102.609 270.272 100.607 270.741 98.494 270.741C96.7691 270.741 95.1056 270.424 93.5036 269.788C91.8992 269.151 90.4703 268.243 89.215 267.061C87.9598 265.879 86.966 264.507 86.2354 262.945C85.5031 261.383 85.0859 259.741 84.982 258.02L30.9564 204.015ZM109.748 38.0618C110.577 36.8224 111.182 35.4828 111.569 34.0447H173.883C174.27 35.4834 174.877 36.8224 175.704 38.0618C176.531 39.3011 177.536 40.374 178.718 41.2802C179.901 42.1882 181.198 42.8813 182.609 43.3595C184.018 43.8395 185.468 44.0794 186.958 44.0794C190.081 44.0794 192.869 43.1141 195.324 41.1852L246.602 92.4447C245.379 94.5562 244.768 96.8307 244.768 99.27C244.768 101.89 245.465 104.308 246.86 106.523C248.255 108.741 250.131 110.415 252.491 111.549V178.356C247.932 180.568 244.768 185.264 244.768 190.701C244.768 192.66 245.198 194.534 245.968 196.222L195.105 246.389C192.693 244.572 189.979 243.662 186.958 243.662C185.468 243.662 184.018 243.902 182.609 244.382C181.198 244.86 179.901 245.553 178.718 246.461C177.536 247.367 176.531 248.44 175.704 249.679C174.877 250.919 174.27 252.258 173.883 253.697H111.569C111.182 252.258 110.575 250.919 109.748 249.679C108.921 248.44 107.916 247.367 106.734 246.461C105.553 245.553 104.254 244.86 102.843 244.382C101.434 243.902 99.9838 243.662 98.494 243.662C95.4159 243.662 92.6602 244.602 90.2231 246.483L41.2496 197.528C42.4559 195.529 43.1527 193.196 43.1527 190.701C43.1527 184.273 38.7844 178.879 32.8809 177.403V112.493C34.3582 112.127 35.7355 111.531 37.0128 110.705C38.2904 109.878 39.3982 108.866 40.3364 107.668C41.2748 106.47 41.992 105.15 42.4878 103.712C42.9841 102.274 43.2323 100.792 43.2323 99.2701C43.2323 96.0929 42.2412 93.2614 40.2592 90.7755L90.1014 41.1638C92.5617 43.107 95.3586 44.0795 98.494 44.0795C99.9838 44.0795 101.434 43.8395 102.843 43.3595C104.254 42.8813 105.553 42.1882 106.734 41.2802C107.916 40.374 108.921 39.3011 109.748 38.0618Z" fill="white"/>
<path fill-rule="evenodd" clip-rule="evenodd" d="M178.997 88.2806C178.997 89.982 178.687 91.6244 178.068 93.2094C177.448 94.7962 176.56 96.2129 175.407 97.463C174.252 98.7148 172.911 99.7124 171.38 100.456C169.849 101.201 168.237 101.641 166.54 101.776L154.645 134.158L186.005 119.949C186.041 118.167 186.412 116.456 187.117 114.821C187.825 113.184 188.815 111.741 190.086 110.492C191.36 109.245 192.822 108.283 194.472 107.609C196.121 106.935 197.838 106.599 199.62 106.599C201.425 106.599 203.161 106.944 204.83 107.636C206.499 108.325 207.971 109.31 209.248 110.587C210.524 111.864 211.509 113.336 212.199 115.005C212.89 116.673 213.235 118.412 213.235 120.217C213.235 122.023 212.89 123.76 212.199 125.429C211.509 127.096 210.524 128.57 209.248 129.847C207.971 131.124 206.499 132.107 204.83 132.799C203.161 133.49 201.425 133.836 199.62 133.836C196.33 133.836 193.422 132.781 190.896 130.673L159.171 145.045L191.572 157.269C194.224 154.656 197.41 153.348 201.133 153.348C202.938 153.348 204.674 153.694 206.343 154.385C208.01 155.075 209.484 156.06 210.761 157.337C212.038 158.614 213.021 160.086 213.712 161.755C214.403 163.424 214.749 165.162 214.749 166.967C214.749 168.772 214.403 170.509 213.712 172.179C213.021 173.846 212.038 175.32 210.761 176.597C209.484 177.874 208.01 178.857 206.343 179.548C204.674 180.24 202.938 180.585 201.133 180.585C199.433 180.585 197.79 180.277 196.205 179.663C194.621 179.047 193.201 178.166 191.947 177.02C190.692 175.872 189.687 174.536 188.931 173.013C188.177 171.489 187.724 169.881 187.57 168.187L155.268 156.001L169.607 187.601C171.367 187.653 173.052 188.034 174.662 188.743C176.272 189.454 177.69 190.441 178.916 191.704C180.141 192.966 181.085 194.414 181.747 196.045C182.408 197.677 182.739 199.373 182.739 201.133C182.739 202.93 182.396 204.656 181.708 206.315C181.022 207.973 180.043 209.438 178.775 210.708C177.505 211.976 176.041 212.955 174.383 213.641C172.724 214.329 170.998 214.673 169.202 214.673C167.406 214.673 165.68 214.329 164.022 213.641C162.364 212.955 160.899 211.976 159.63 210.708C158.362 209.438 157.382 207.973 156.697 206.315C156.009 204.656 155.665 202.93 155.665 201.133C155.665 197.84 156.727 194.931 158.849 192.411L144.567 160.94L132.276 193.045C134.863 195.692 136.156 198.866 136.156 202.566C136.156 204.373 135.811 206.11 135.12 207.78C134.43 209.447 133.445 210.919 132.169 212.198C130.892 213.475 129.42 214.458 127.751 215.149C126.084 215.841 124.345 216.186 122.54 216.186C120.735 216.186 118.999 215.841 117.33 215.149C115.663 214.458 114.189 213.475 112.912 212.198C111.636 210.919 110.652 209.447 109.961 207.78C109.27 206.11 108.925 204.373 108.925 202.566C108.925 200.87 109.231 199.229 109.845 197.646C110.457 196.063 111.337 194.645 112.479 193.391C113.623 192.136 114.954 191.131 116.474 190.375C117.994 189.619 119.598 189.162 121.289 189.007L133.675 156.651L133.578 156.561L102.07 171.063C102.015 172.831 101.628 174.523 100.913 176.14C100.197 177.758 99.205 179.181 97.9355 180.412C96.6641 181.642 95.2102 182.59 93.5717 183.254C91.9315 183.917 90.2286 184.25 88.4613 184.25C86.6546 184.25 84.9177 183.904 83.2506 183.213C81.5817 182.521 80.1098 181.538 78.8313 180.261C77.5555 178.983 76.5718 177.51 75.8811 175.843C75.1899 174.174 74.8443 172.437 74.8443 170.631C74.8443 168.824 75.1899 167.087 75.8811 165.418C76.5718 163.75 77.5555 162.278 78.8313 160.999C80.1098 159.722 81.5817 158.739 83.2506 158.048C84.9177 157.357 86.6546 157.011 88.4613 157.011C91.8116 157.011 94.7607 158.102 97.3088 160.279L128.548 145.902L96.3078 133.821C93.6899 136.327 90.5707 137.579 86.9482 137.579C85.1522 137.579 83.4261 137.235 81.768 136.549C80.1081 135.861 78.6449 134.883 77.3758 133.614C76.1066 132.344 75.1283 130.881 74.4415 129.22C73.7546 127.562 73.4111 125.835 73.4111 124.039C73.4111 122.245 73.7546 120.516 74.4415 118.858C75.1283 117.199 76.1066 115.736 77.3758 114.466C78.6449 113.197 80.1081 112.219 81.768 111.531C83.4261 110.843 85.1522 110.501 86.9482 110.501C88.6261 110.501 90.2483 110.802 91.8151 111.406C93.3801 112.009 94.7858 112.874 96.0303 114.001C97.2747 115.126 98.2739 116.438 99.0313 117.937C99.787 119.436 100.249 121.02 100.417 122.691L132.629 134.76L118.384 103.405C116.626 103.352 114.941 102.97 113.331 102.259C111.723 101.548 110.305 100.561 109.08 99.2987C107.856 98.036 106.914 96.589 106.253 94.9574C105.592 93.3276 105.263 91.6333 105.263 89.8728C105.263 88.0783 105.605 86.35 106.292 84.6915C106.98 83.0331 107.958 81.5681 109.227 80.3001C110.495 79.0303 111.96 78.0506 113.618 77.3647C115.276 76.677 117.004 76.3331 118.798 76.3331C120.594 76.3331 122.32 76.677 123.978 77.3647C125.638 78.0506 127.101 79.0303 128.371 80.3001C129.64 81.5681 130.618 83.0331 131.304 84.6915C131.991 86.35 132.335 88.0783 132.335 89.8728C132.335 93.1377 131.291 96.0266 129.203 98.5357L143.544 130.102L143.666 130.098L155.615 97.5722C153.153 94.9646 151.923 91.8662 151.923 88.2806C151.923 86.4843 152.267 84.7578 152.954 83.0994C153.64 81.4391 154.619 79.9759 155.887 78.7061C157.157 77.4363 158.621 76.4585 160.28 75.7725C161.938 75.0848 163.664 74.7409 165.46 74.7409C167.256 74.7409 168.982 75.0848 170.64 75.7725C172.298 76.4585 173.763 77.4363 175.033 78.7061C176.3 79.9759 177.28 81.4391 177.966 83.0994C178.653 84.7578 178.997 86.4849 178.997 88.2806Z" fill="white"/>
</svg>
