<svg width="294" height="288" viewBox="0 0 294 288" fill="none" xmlns="http://www.w3.org/2000/svg">
<path fill-rule="evenodd" clip-rule="evenodd" d="M293.443 288H154.53H0V0H293.443V288Z" fill="#0B9B92"/>
<path fill-rule="evenodd" clip-rule="evenodd" d="M33.9564 204.015C33.5151 204.058 33.0677 204.079 32.6161 204.079C25.1313 204.239 19.0797 198.107 19.0797 190.701C19.0797 186.363 21.0684 182.496 24.1758 179.987V109.957C20.7253 107.231 19 103.669 19 99.27C19 97.5364 19.3196 95.8636 19.9587 94.2517C20.5978 92.6399 21.5115 91.2017 22.6998 89.9391C23.888 88.6747 25.2672 87.6753 26.8374 86.9392C28.4072 86.2031 30.0578 85.7823 31.7888 85.6784L87.9802 29.7445C88.0822 28.0198 88.4977 26.3775 89.2282 24.8122C89.9588 23.2487 90.9508 21.8732 92.2078 20.6894C93.4636 19.505 94.8938 18.594 96.4981 17.9564C98.1025 17.3188 99.7678 17 101.494 17C105.881 17 109.43 18.7265 112.139 22.1777H179.313C182.022 18.7265 185.571 17 189.96 17C191.677 17 193.337 17.317 194.936 17.9492C196.535 18.5814 197.96 19.4841 199.215 20.6608C200.469 21.8356 201.464 23.2021 202.199 24.7567C202.933 26.3112 203.355 27.9464 203.466 29.6622L259.597 85.7697C260.19 85.6909 260.786 85.6515 261.384 85.6515C263.189 85.6515 264.926 85.9972 266.595 86.6885C268.264 87.3798 269.736 88.363 271.012 89.64C272.289 90.9187 273.274 92.3909 273.963 94.0583C274.654 95.7275 275 97.4647 275 99.27C275 101.89 274.303 104.308 272.909 106.523C271.514 108.741 269.637 110.415 267.277 111.549V178.363C271.804 180.578 274.921 185.271 274.921 190.701C274.921 198.107 268.869 204.079 261.384 204.079C260.261 204.105 259.171 203.986 258.125 203.745L203.488 257.633C203.432 259.39 203.049 261.072 202.338 262.68C201.626 264.288 200.639 265.703 199.377 266.926C198.114 268.15 196.669 269.092 195.04 269.751C193.41 270.412 191.716 270.741 189.96 270.741C187.847 270.741 185.843 270.272 183.949 269.334C182.056 268.395 180.469 267.086 179.191 265.404H112.263C110.983 267.086 109.396 268.395 107.503 269.334C105.609 270.272 103.607 270.741 101.494 270.741C99.7691 270.741 98.1056 270.424 96.5036 269.788C94.8992 269.151 93.4703 268.243 92.215 267.061C90.9598 265.879 89.966 264.507 89.2354 262.945C88.5031 261.383 88.0859 259.741 87.982 258.02L33.9564 204.015ZM112.748 38.0618C113.577 36.8224 114.182 35.4828 114.569 34.0447H176.883C177.27 35.4834 177.877 36.8224 178.704 38.0618C179.531 39.3011 180.536 40.374 181.718 41.2802C182.901 42.1882 184.198 42.8813 185.609 43.3595C187.018 43.8395 188.468 44.0794 189.958 44.0794C193.081 44.0794 195.869 43.1141 198.324 41.1852L249.602 92.4447C248.379 94.5562 247.768 96.8307 247.768 99.27C247.768 101.89 248.465 104.308 249.86 106.523C251.255 108.741 253.131 110.415 255.491 111.549V178.356C250.932 180.568 247.768 185.264 247.768 190.701C247.768 192.66 248.198 194.534 248.968 196.222L198.105 246.389C195.693 244.572 192.979 243.662 189.958 243.662C188.468 243.662 187.018 243.902 185.609 244.382C184.198 244.86 182.901 245.553 181.718 246.461C180.536 247.367 179.531 248.44 178.704 249.679C177.877 250.919 177.27 252.258 176.883 253.697H114.569C114.182 252.258 113.575 250.919 112.748 249.679C111.921 248.44 110.916 247.367 109.734 246.461C108.553 245.553 107.254 244.86 105.843 244.382C104.434 243.902 102.984 243.662 101.494 243.662C98.4159 243.662 95.6602 244.602 93.2231 246.483L44.2496 197.528C45.4559 195.529 46.1527 193.196 46.1527 190.701C46.1527 184.273 41.7844 178.879 35.8809 177.403V112.493C37.3582 112.127 38.7355 111.531 40.0128 110.705C41.2904 109.878 42.3982 108.866 43.3364 107.668C44.2748 106.47 44.992 105.15 45.4878 103.712C45.9841 102.274 46.2323 100.792 46.2323 99.2701C46.2323 96.0929 45.2412 93.2614 43.2592 90.7755L93.1014 41.1638C95.5617 43.107 98.3586 44.0795 101.494 44.0795C102.984 44.0795 104.434 43.8395 105.843 43.3595C107.254 42.8813 108.553 42.1882 109.734 41.2802C110.916 40.374 111.921 39.3011 112.748 38.0618Z" fill="white"/>
<path fill-rule="evenodd" clip-rule="evenodd" d="M181.997 88.2806C181.997 89.982 181.687 91.6244 181.068 93.2094C180.448 94.7962 179.56 96.2129 178.407 97.463C177.252 98.7148 175.911 99.7124 174.38 100.456C172.849 101.201 171.237 101.641 169.54 101.776L157.645 134.158L189.005 119.949C189.041 118.167 189.412 116.456 190.117 114.821C190.825 113.184 191.815 111.741 193.086 110.492C194.36 109.245 195.822 108.283 197.472 107.609C199.121 106.935 200.838 106.599 202.62 106.599C204.425 106.599 206.161 106.944 207.83 107.636C209.499 108.325 210.971 109.31 212.248 110.587C213.524 111.864 214.509 113.336 215.199 115.005C215.89 116.673 216.235 118.412 216.235 120.217C216.235 122.023 215.89 123.76 215.199 125.429C214.509 127.096 213.524 128.57 212.248 129.847C210.971 131.124 209.499 132.107 207.83 132.799C206.161 133.49 204.425 133.836 202.62 133.836C199.33 133.836 196.422 132.781 193.896 130.673L162.171 145.045L194.572 157.269C197.224 154.656 200.41 153.348 204.133 153.348C205.938 153.348 207.674 153.694 209.343 154.385C211.01 155.075 212.484 156.06 213.761 157.337C215.038 158.614 216.021 160.086 216.712 161.755C217.403 163.424 217.749 165.162 217.749 166.967C217.749 168.772 217.403 170.509 216.712 172.179C216.021 173.846 215.038 175.32 213.761 176.597C212.484 177.874 211.01 178.857 209.343 179.548C207.674 180.24 205.938 180.585 204.133 180.585C202.433 180.585 200.79 180.277 199.205 179.663C197.621 179.047 196.201 178.166 194.947 177.02C193.692 175.872 192.687 174.536 191.931 173.013C191.177 171.489 190.724 169.881 190.57 168.187L158.268 156.001L172.607 187.601C174.367 187.653 176.052 188.034 177.662 188.743C179.272 189.454 180.69 190.441 181.916 191.704C183.141 192.966 184.085 194.414 184.747 196.045C185.408 197.677 185.739 199.373 185.739 201.133C185.739 202.93 185.396 204.656 184.708 206.315C184.022 207.973 183.043 209.438 181.775 210.708C180.505 211.976 179.041 212.955 177.383 213.641C175.724 214.329 173.998 214.673 172.202 214.673C170.406 214.673 168.68 214.329 167.022 213.641C165.364 212.955 163.899 211.976 162.63 210.708C161.362 209.438 160.382 207.973 159.697 206.315C159.009 204.656 158.665 202.93 158.665 201.133C158.665 197.84 159.727 194.931 161.849 192.411L147.567 160.94L135.276 193.045C137.863 195.692 139.156 198.866 139.156 202.566C139.156 204.373 138.811 206.11 138.12 207.78C137.43 209.447 136.445 210.919 135.169 212.198C133.892 213.475 132.42 214.458 130.751 215.149C129.084 215.841 127.345 216.186 125.54 216.186C123.735 216.186 121.999 215.841 120.33 215.149C118.663 214.458 117.189 213.475 115.912 212.198C114.636 210.919 113.652 209.447 112.961 207.78C112.27 206.11 111.925 204.373 111.925 202.566C111.925 200.87 112.231 199.229 112.845 197.646C113.457 196.063 114.337 194.645 115.479 193.391C116.623 192.136 117.954 191.131 119.474 190.375C120.994 189.619 122.598 189.162 124.289 189.007L136.675 156.651L136.578 156.561L105.07 171.063C105.015 172.831 104.628 174.523 103.913 176.14C103.197 177.758 102.205 179.181 100.935 180.412C99.6641 181.642 98.2102 182.59 96.5717 183.254C94.9315 183.917 93.2286 184.25 91.4613 184.25C89.6546 184.25 87.9177 183.904 86.2506 183.213C84.5817 182.521 83.1098 181.538 81.8313 180.261C80.5555 178.983 79.5718 177.51 78.8811 175.843C78.1899 174.174 77.8443 172.437 77.8443 170.631C77.8443 168.824 78.1899 167.087 78.8811 165.418C79.5718 163.75 80.5555 162.278 81.8313 160.999C83.1098 159.722 84.5817 158.739 86.2506 158.048C87.9177 157.357 89.6546 157.011 91.4613 157.011C94.8116 157.011 97.7607 158.102 100.309 160.279L131.548 145.902L99.3078 133.821C96.6899 136.327 93.5707 137.579 89.9482 137.579C88.1522 137.579 86.4261 137.235 84.768 136.549C83.1081 135.861 81.6449 134.883 80.3758 133.614C79.1066 132.344 78.1283 130.881 77.4415 129.22C76.7546 127.562 76.4111 125.835 76.4111 124.039C76.4111 122.245 76.7546 120.516 77.4415 118.858C78.1283 117.199 79.1066 115.736 80.3758 114.466C81.6449 113.197 83.1081 112.219 84.768 111.531C86.4261 110.843 88.1522 110.501 89.9482 110.501C91.6261 110.501 93.2483 110.802 94.8151 111.406C96.3801 112.009 97.7858 112.874 99.0303 114.001C100.275 115.126 101.274 116.438 102.031 117.937C102.787 119.436 103.249 121.02 103.417 122.691L135.629 134.76L121.384 103.405C119.626 103.352 117.941 102.97 116.331 102.259C114.723 101.548 113.305 100.561 112.08 99.2987C110.856 98.036 109.914 96.589 109.253 94.9574C108.592 93.3276 108.263 91.6333 108.263 89.8728C108.263 88.0783 108.605 86.35 109.292 84.6915C109.98 83.0331 110.958 81.5681 112.227 80.3001C113.495 79.0303 114.96 78.0506 116.618 77.3647C118.276 76.677 120.004 76.3331 121.798 76.3331C123.594 76.3331 125.32 76.677 126.978 77.3647C128.638 78.0506 130.101 79.0303 131.371 80.3001C132.64 81.5681 133.618 83.0331 134.304 84.6915C134.991 86.35 135.335 88.0783 135.335 89.8728C135.335 93.1377 134.291 96.0266 132.203 98.5357L146.544 130.102L146.666 130.098L158.615 97.5722C156.153 94.9646 154.923 91.8662 154.923 88.2806C154.923 86.4843 155.267 84.7578 155.954 83.0994C156.64 81.4391 157.619 79.9759 158.887 78.7061C160.157 77.4363 161.621 76.4585 163.28 75.7725C164.938 75.0848 166.664 74.7409 168.46 74.7409C170.256 74.7409 171.982 75.0848 173.64 75.7725C175.298 76.4585 176.763 77.4363 178.033 78.7061C179.3 79.9759 180.28 81.4391 180.966 83.0994C181.653 84.7578 181.997 86.4849 181.997 88.2806Z" fill="white"/>
</svg>
